<svg xmlns="http://www.w3.org/2000/svg" width="130" height="216" viewBox="0 0 130 216"><path fill="#FFF" d="M120 4c3.339 2.523 4.754 4.29 6.125 8.25-.269 8.067-6.58 15.024-11.25 21.313a3216.727 3216.727 0 0 0-3.469 4.746l-1.738 2.382C105.322 46.708 101.184 52.87 97 59L86 75l42 1c-4.093 6.433-8.01 12.572-12.625 18.563a831.445 831.445 0 0 0-12.813 17.312l-1.635 2.272a11263.99 11263.99 0 0 0-3.286 4.57c-2.707 3.766-5.425 7.524-8.141 11.283a9381.665 9381.665 0 0 0-9.715 13.465 2614.709 2614.709 0 0 1-18.552 25.427c-7.375 9.993-14.621 20.079-21.866 30.167l-1.802 2.505c-1.145 1.591-2.287 3.183-3.429 4.776l-1.554 2.16-1.368 1.906C30 212 30 212 28 214H0V76h60l2-5c1.106-1.81 1.106-1.81 2.328-3.504l1.402-1.963 1.52-2.096a8350.02 8350.02 0 0 0 3.266-4.566l1.728-2.41C75.194 52.327 78.094 48.162 81 44c5.418-7.747 10.837-15.493 16.313-23.2a411.15 411.15 0 0 0 5-7.195l2.062-2.98 1.71-2.523C110.096 3.699 114.329 2.069 120 4ZM127 118h2c1.04 19.773 1.65 39.421.188 59.188l-.213 3.038c-.795 9.556-2.096 19.935-7.975 27.774-15.73 11.557-43.588 9.772-62 7-2.375-1.04-2.375-1.04-4-2 7.086-10.135 14.515-19.986 22.031-29.805 3.478-4.543 6.92-9.111 10.344-13.695a1395.662 1395.662 0 0 1 12.996-17.09c3.057-3.96 6.092-7.935 9.129-11.91a9492.63 9492.63 0 0 1 12.25-16l2.422-3.156C126 119 126 119 127 118Z"/></svg>